<svg height="511pt" viewBox="1 0 511.99999 511" width="511pt" xmlns="http://www.w3.org/2000/svg"><path d="m479.289062 204.523438v246.257812h-446.578124v-243.730469h14.988281l117.667969-.71875 90.664062-.546875 193.28125-1.171875v-.089843zm0 0" fill="#f0e7df"/><path d="m479.289062 204.523438v246.257812h-223.257812v-244.996094l193.28125-1.171875v-.089843zm0 0" fill="#dfcdbd"/><path d="m165.367188 206.332031v244.449219h-132.65625v-243.730469h14.988281zm0 0" fill="#ffaa20"/><path d="m92.28125.5h327.4375v85.035156h-327.4375zm0 0" fill="#ffaa20"/><path d="m256.03125.5h163.6875v85.035156h-163.6875zm0 0" fill="#ff8900"/><path d="m512 219.511719h-512l67.164062-148.960938h377.671876zm0 0" fill="#8a6744"/><path d="m512 219.511719h-255.96875v-148.960938h188.804688zm0 0" fill="#644b31"/><path d="m241.011719 70.550781h29.976562v148.960938h-29.976562zm0 0" fill="#c8ad92"/><path d="m165.367188 70.550781-17.644532 148.960938h-30.171875l17.644531-148.960938zm0 0" fill="#c8ad92"/><path d="m394.449219 219.511719h-30.171875l-17.644532-148.960938h30.171876zm0 0" fill="#c8ad92"/><g fill="#8a6744"><path d="m323.273438 339.417969v29.976562h-28.476563v58.617188h-29.972656v-58.617188h-28.476563v-29.976562zm0 0"/><path d="m440.671875 339.417969v29.976562h-28.476563v58.617188h-29.972656v-58.617188h-28.476562v-29.976562zm0 0"/><path d="m116.785156 301.527344h29.976563v31.132812h-29.976563zm0 0"/></g><path d="m256.03125 70.550781h14.957031v148.960938h-14.957031zm0 0" fill="#bd9b7b"/><path d="m256.03125 339.417969h67.242188v29.976562h-28.476563v58.617188h-29.972656v-58.617188h-8.792969zm0 0" fill="#644b31"/><path d="m364.277344 219.511719-17.644532-148.960938h30.171876l17.644531 148.960938zm0 0" fill="#bd9b7b"/><path d="m440.671875 339.417969v29.976562h-28.476563v58.617188h-29.972656v-58.617188h-28.476562v-29.976562zm0 0" fill="#644b31"/><path d="m.21875 420.808594h511.5625v91.25h-511.5625zm0 0" fill="#c8ad92"/><path d="m256.03125 420.808594h255.75v91.25h-255.75zm0 0" fill="#bd9b7b"/></svg>